<svg width="457" height="137" viewBox="0 0 457 137" fill="none" xmlns="http://www.w3.org/2000/svg">
<path d="M309.793 81.4573C308.954 81.5592 307.76 81.6608 307.049 81.3896C306.992 81.3676 306.932 81.3531 306.874 81.3458C306.099 81.2665 305.285 81.0474 304.498 80.836C303.718 80.6273 302.987 80.4307 302.265 80.3449C297.438 78.5903 293.583 74.4671 291.106 71.5169C290.987 71.3759 290.814 71.2886 290.629 71.275C290.585 71.2731 290.538 71.2716 290.495 71.2768C290.357 71.2936 290.227 71.3527 290.122 71.4449C289.987 71.548 289.848 71.7383 289.818 71.9081C289.653 72.8131 289.13 73.5593 288.577 74.3491C288.195 74.8939 287.832 75.4112 287.582 75.9907C287.414 76.4193 287.214 77.0613 286.987 77.8077C286.384 79.7701 285.471 82.7348 284.58 83.3632C284.192 83.6776 283.775 83.8367 283.184 83.9084C282.878 83.9456 282.573 83.9574 282.267 83.9691C281.915 83.983 281.56 83.9973 281.204 84.0405C281.065 84.0574 280.93 84.0773 280.793 84.1049C280.606 84.1384 280.411 84.1693 280.219 84.1926C278.736 84.3728 277.284 84.1879 276.197 83.684C274.803 76.7045 274.489 68.3077 274.374 62.5817C274.371 62.5532 274.371 62.5243 274.364 62.4962C273.771 58.4248 273.099 54.5003 272.387 50.3422L272.305 49.8682C272.229 44.7335 271.802 37.3691 270.208 31.2988C270.159 30.3837 270.078 29.4867 270.002 28.6218C269.926 27.7569 269.849 26.8884 269.801 26.02C269.843 23.6019 268.626 20.2204 267.708 17.89C267.496 17.3377 267.384 16.4771 267.262 15.5635C267.133 14.5859 267 13.5833 266.734 12.8209C266.625 12.5163 266.32 12.3293 266.004 12.3677C265.986 12.3699 265.496 12.4691 265.243 12.5215C264.105 12.7536 263.188 12.93 262.405 13.0251C261.121 13.181 260.669 13.0517 260.513 12.9622C259.555 12.4753 259.242 9.45368 258.99 7.02784C258.836 5.55107 258.68 4.03115 258.398 2.81189C259.332 2.91888 260.387 2.8991 261.55 2.75784C262.724 2.61529 263.781 2.37134 264.48 2.18883C266.108 2.27652 272.184 1.71215 275.844 1.26763C279.309 0.846873 279.638 0.673258 279.8 0.581327C280.88 0.349033 281.816 0.184719 282.581 0.0918412C284.388 -0.127609 284.753 0.113439 284.766 0.126383C284.796 0.223897 284.836 0.287645 284.903 0.362608C284.966 0.434444 285.046 0.504118 285.142 0.579185C285.194 0.619846 285.238 0.657813 285.275 0.693083C286.023 6.99249 286.735 12.7545 287.452 18.5663C288.15 24.2108 288.846 29.8447 289.586 36.0475C289.625 36.3715 289.887 36.6215 290.211 36.6507C290.259 36.6557 290.306 36.6537 290.352 36.6481C290.619 36.6157 290.849 36.4288 290.928 36.1591C292.62 30.3977 298.326 25.6373 305.458 24.0306C306.21 23.8599 306.967 23.7283 307.707 23.6384C313.672 22.914 318.901 24.8004 322.049 28.8107C326.677 34.7184 328.313 42.7379 329.895 50.4929C330.183 51.9137 330.467 53.2989 330.766 54.657C331.097 56.069 330.952 58.2901 330.342 61.2648C330.135 62.2039 330.03 63.0873 329.932 63.9409C329.786 65.176 329.65 66.3413 329.208 67.4894C326.68 74.2445 320.109 79.1606 310.699 81.3364L309.785 81.4475L309.793 81.4573ZM299.3 35.7818C299.239 35.7891 299.18 35.8036 299.125 35.8283C298.148 36.2251 296.93 36.7162 295.648 37.0959C295.592 37.1135 295.537 37.1346 295.487 37.166C292.582 38.9276 290.048 42.6706 289.187 46.4815C287.759 53.5256 291.634 65.1456 297.155 70.4103C299.421 72.5734 301.855 73.5637 304.189 73.2803C304.466 73.2467 304.745 73.1947 305.018 73.1254C307.839 72.3639 309.962 70.7045 311.338 68.1893C313.583 64.0876 313.652 57.8623 311.537 51.1003L310.768 44.6554C310.759 44.5807 310.74 44.5107 310.707 44.4461C310.195 43.3595 309.688 42.3013 309.179 41.2396C308.657 40.1471 308.144 39.0751 307.624 37.9787C307.599 37.9239 307.564 37.8704 307.522 37.8248C305.686 35.6926 304.122 35.7742 302.31 35.8713C301.485 35.9137 300.55 35.966 299.492 35.7909C299.43 35.7805 299.361 35.778 299.297 35.7858L299.3 35.7818Z" fill="#F8E3D1"/>
<path d="M389.541 72.5856C389.288 72.6163 389.044 72.6315 388.813 72.6306C382.675 72.6753 379.127 68.4967 376.29 64.5787C376.033 64.1873 375.95 63.8325 375.858 63.4572C375.757 63.0468 375.654 62.6185 375.304 62.2276C375.174 62.0844 374.995 62.0015 374.803 61.9994C374.771 61.9998 374.742 61.9997 374.71 62.0035C374.553 62.0226 374.407 62.0945 374.295 62.2129C374.25 62.2581 374.209 62.3064 374.168 62.3583C374.108 62.4306 374.065 62.519 374.04 62.6087C372.204 69.3303 364.989 74.9205 356.886 75.9046C356.32 75.9733 355.745 76.0215 355.177 76.0435C347.505 76.3575 341.66 72.5194 339.147 65.5095C338.134 62.6775 338.222 60.0154 339.412 57.5988C342.941 50.4332 355.189 46.4858 364.129 43.6011C366.509 42.8353 368.562 42.1742 370.181 41.5368C370.47 41.4222 370.648 41.1297 370.614 40.8196C369.934 34.7829 367.706 30.1478 364.504 28.1055C362.923 27.0946 361.114 26.7038 359.129 26.9448C358.368 27.0373 357.571 27.2243 356.76 27.5034C356.334 27.6491 355.867 27.7818 355.399 27.9144C354.23 28.2442 353.023 28.5895 352.31 29.1673C351.607 29.5922 351.481 29.9472 351.357 30.4787C351.344 30.5418 351.329 30.6013 351.312 30.6684C350.686 32.1135 351.032 33.7658 351.363 35.3655C351.754 37.2398 351.934 38.4245 351.199 39.0557C351.162 39.0853 351.13 39.1181 351.102 39.1541C350.909 39.3762 349.581 39.9132 345.949 40.3542C343.861 40.6078 341.768 40.7355 340.856 40.7126C339.247 34.7815 338.91 31.9217 338.353 27.2246C338.122 25.2695 337.866 23.1007 337.475 20.3016C337.607 20.206 337.734 20.1149 337.86 20.0237C338.019 19.9068 338.174 19.7904 338.354 19.6674C338.874 19.6043 339.437 19.5214 340.026 19.4355C340.668 19.343 341.317 19.2462 341.964 19.1676C343.153 19.0233 344.834 18.8697 345.897 19.1524C346.435 19.7734 346.916 20.4628 347.383 21.1321C347.816 21.7514 348.253 22.3775 348.74 22.965C348.867 23.1193 349.059 23.2116 349.261 23.2124C349.29 23.2125 349.322 23.2121 349.351 23.2087C349.518 23.1884 349.674 23.1044 349.788 22.975C352.645 19.6659 358.232 18.2035 360.79 17.8929C360.953 17.873 361.11 17.854 361.257 17.8434L362.038 17.7666C367.177 17.2545 370.009 16.972 373.87 17.67C374.097 17.7255 374.496 17.8323 374.948 17.9545L375.033 17.9766C376.194 18.2908 377.261 18.5766 377.695 18.6431C377.747 18.6513 377.797 18.6524 377.851 18.6494C383.076 22.1944 384.463 24.1609 386.994 31.5551C387.5 33.9898 387.902 36.4407 388.292 38.8101L388.337 39.09L388.86 43.4805C389.028 44.7171 389.168 46.0186 389.311 47.3993C389.871 52.7426 390.502 58.7601 393.219 61.6956C393.369 61.858 393.588 61.9362 393.805 61.9099C393.812 61.909 393.819 61.9081 393.826 61.9073C395.091 61.7139 395.644 61.1555 396.233 60.5674C396.404 60.3985 396.565 60.2345 396.751 60.0746C397.868 60.7409 400.956 62.6272 400.525 64.4243C400.126 66.8136 394.068 72.0286 389.547 72.5777L389.541 72.5856ZM369.783 47.4047C369.665 47.4189 369.552 47.4652 369.459 47.5343C368.005 48.6103 366.046 49.3251 364.145 50.0219C361.131 51.1248 358.283 52.1643 356.967 54.5493C356.249 55.7708 356.137 57.6411 356.673 59.6712C357.169 61.5544 358.135 63.1458 359.141 63.728C361.389 64.9975 363.575 65.5449 365.46 65.3159C366.495 65.1902 367.438 64.8373 368.263 64.2639C371.016 62.3545 372.198 58.2375 371.422 53.2527C371.357 52.7188 371.371 52.121 371.384 51.5451C371.41 50.3643 371.436 49.0354 370.832 47.7541C370.706 47.4876 370.427 47.33 370.131 47.3623L369.783 47.4047Z" fill="#F8E3D1"/>
<path d="M432.432 67.0156C425.734 67.8291 419.636 66.8429 414.308 64.0799C410.781 62.1818 404.133 55.8692 402.438 52.2639C396.826 40.5803 402.049 22.6176 408.308 16.2078C409.989 14.5299 412.677 13.4556 415.28 12.4206C416.902 11.7758 418.575 11.1066 420.024 10.2912C421.064 9.72429 422.035 9.51606 423.265 9.36659C423.486 9.33981 424.554 9.22089 424.554 9.22089C435.597 8.80825 442.076 9.98663 446.856 13.293C452.264 17.0361 455.473 23.8892 456.943 34.8511C456.807 35.1206 456.67 35.3901 456.533 35.6596C452.734 36.2726 448.938 36.9106 445.128 37.5503C441.149 38.2178 437.035 38.9124 432.949 39.5676L432.753 39.5913C428.775 40.0601 425.017 40.5056 421.087 40.8708C421.08 40.8717 421.073 40.8726 421.069 40.873C420.777 40.9084 420.537 41.129 420.478 41.4179C419.213 47.691 425.146 56.1422 430.331 57.6366C430.417 57.6623 430.508 57.6693 430.601 57.658C431.815 57.5178 433.134 57.4732 434.275 57.4431L439.431 56.8349C439.502 56.8263 439.572 56.807 439.64 56.7734C439.972 56.6176 440.321 56.4667 440.678 56.3114C442.1 55.6908 443.558 55.0586 444.616 54.0234C446.259 52.4259 447.345 51.4162 449.282 49.7975C451.268 50.4882 455.709 52.6294 455.836 53.7084C455.843 53.7654 455.857 53.8214 455.879 53.8767C455.967 54.0972 455.927 54.427 455.767 54.833C454.816 57.2496 450.054 61.4872 447.547 62.5395C442.332 64.9247 437.255 66.4263 432.435 67.0116L432.432 67.0156ZM422.669 33.6707C422.847 33.6491 423.018 33.6319 423.184 33.6263C427.163 33.4898 434.718 32.594 438.774 32.1122C438.956 32.0902 439.121 31.9943 439.234 31.8506C439.346 31.7033 439.395 31.5203 439.369 31.3356C438.76 26.9194 435.943 17.6744 432.953 16.4841C430.987 15.7476 429.107 15.4846 427.356 15.6971C425.361 15.9395 423.561 16.7794 422.003 18.1931C418.151 21.6881 416.339 28.219 417.697 33.7182C417.77 34.0164 418.034 34.23 418.338 34.24C418.73 34.2538 419.16 34.2305 419.647 34.1713C420.195 34.1048 420.742 34.0022 421.272 33.9018C421.776 33.808 422.239 33.7194 422.665 33.6675L422.669 33.6707Z" fill="#F8E3D1"/>
<path d="M166.389 99.5766C166.118 99.6095 165.853 99.6272 165.604 99.625C159.332 99.6713 155.734 95.4339 152.85 91.4566C152.561 91.0148 152.461 90.6007 152.373 90.2357C152.342 90.0986 152.31 89.9833 152.279 89.8787C152.193 89.5893 151.927 89.3904 151.627 89.3871C151.598 89.387 151.569 89.3869 151.537 89.3907C151.27 89.4231 151.048 89.6092 150.967 89.8682C148.882 96.5586 141.783 101.914 133.701 102.896C133.129 102.965 132.553 103.014 131.982 103.036C124.292 103.352 118.195 99.346 115.672 92.3156C114.633 89.4075 114.726 86.6725 115.951 84.1866C119.532 76.9135 131.845 72.9437 140.839 70.0454C143.117 69.3099 145.083 68.6774 146.663 68.0701C146.956 67.9587 147.136 67.6586 147.099 67.3489C146.399 61.5096 144.23 57.03 141.142 55.0606C139.616 54.0863 137.87 53.7131 135.949 53.9464C135.21 54.0362 134.434 54.2207 133.644 54.4901C133.211 54.6366 132.736 54.7737 132.262 54.9072C131.044 55.2537 129.896 55.5774 129.235 56.1417L129.192 56.1687C128.658 56.4719 128.542 56.7352 128.422 57.2592C128.4 57.352 128.381 57.4303 128.362 57.5085L128.345 57.5502C127.766 58.8162 128.102 60.448 128.431 62.0228C128.765 63.6403 129.084 65.1657 128.205 65.9587C128.179 65.9799 128.157 66.0043 128.135 66.0323C127.999 66.1932 127.242 66.7621 123.095 67.3053L122.608 67.3645C120.509 67.6194 118.307 67.7676 117.43 67.708C115.77 61.6241 115.427 58.7434 114.866 53.9853C114.633 52.0124 114.37 49.7866 113.963 46.8919C114.147 46.7685 114.309 46.6476 114.468 46.5308C114.657 46.3887 114.836 46.2586 115.043 46.1214L115.288 46.0916C115.644 46.0484 116.027 45.9946 116.421 45.936L116.775 45.8821C117.41 45.7906 118.066 45.6928 118.717 45.6138C119.959 45.463 121.737 45.3013 122.845 45.6291C123.415 46.2752 123.918 46.998 124.407 47.6936C124.769 48.213 125.141 48.7459 125.534 49.2437C125.658 49.402 125.846 49.4948 126.045 49.503C126.082 49.5058 126.117 49.5015 126.153 49.4972C126.313 49.4778 126.463 49.4018 126.574 49.2834C129.169 46.4831 134.07 44.7572 137.528 44.3373C137.699 44.3166 137.866 44.2963 138.024 44.2879L138.801 44.2116C143.966 43.6964 146.808 43.4162 150.713 44.1196C150.973 44.1819 151.41 44.3023 151.896 44.4348C152.605 44.6268 153.781 44.9428 154.332 45.0564C154.406 45.0727 154.479 45.0747 154.554 45.0657C154.586 45.0618 154.621 45.0575 154.652 45.0465L154.707 45.0831C160.08 48.7185 161.482 50.6832 164.06 58.2306L164.064 58.2662C164.564 60.6511 164.97 63.1269 165.361 65.5176L165.403 65.7691L165.928 70.1738C166.097 71.4176 166.236 72.7337 166.379 74.1251C166.924 79.3113 167.538 85.1935 170.097 88.1013C170.248 88.2709 170.471 88.3558 170.695 88.3286C170.709 88.3268 170.727 88.3247 170.741 88.3229C171.792 88.1195 172.291 87.6218 172.816 87.0957C173.028 86.8821 173.247 86.664 173.507 86.4555L173.616 86.5217C174.717 87.179 178.069 89.1815 177.58 91.2168C177.161 93.7349 171.092 99.0091 166.385 99.5806L166.389 99.5766ZM146.741 74.3823C146.624 74.3965 146.453 74.4462 146.357 74.5156C144.877 75.5911 142.921 76.3055 141.027 76.9979C138.065 78.0801 135.266 79.1064 134 81.3951C133.314 82.5584 133.215 84.3514 133.731 86.308C134.208 88.1213 135.126 89.6462 136.069 90.1927C138.263 91.4326 140.386 91.966 142.211 91.7443C143.2 91.6243 144.101 91.2872 144.886 90.7403C147.549 88.8925 148.686 84.882 147.927 80.0072C147.858 79.4412 147.874 78.8288 147.886 78.2422C147.911 77.1121 147.935 75.9459 147.456 74.7976C147.338 74.5156 147.047 74.3416 146.744 74.3783L146.741 74.3787L146.741 74.3823Z" fill="#F8E3D1"/>
<path d="M247.815 88.0444C241.643 88.7939 235.617 86.5817 231.28 81.9716C226.963 77.4892 226.161 69.744 225.387 62.2521C225.107 59.5335 224.842 56.9648 224.41 54.6006C224.268 53.7039 224.216 52.4712 224.158 51.1669C224.043 48.4645 223.912 45.4062 222.944 43.6778C222.815 43.4479 222.568 43.3118 222.306 43.3291C222.005 43.3475 221.706 43.3767 221.41 43.4126C220.525 43.5201 219.679 43.695 218.859 43.8669C218.049 44.0339 217.296 44.1904 216.538 44.2824C215.78 44.3744 215.183 44.3856 214.581 44.3323L214.42 43.3403C214.044 41.0452 213.685 38.8707 213.757 36.7886C222.44 35.167 226.131 31.8613 228.316 23.7969C228.323 23.7671 228.33 23.7338 228.334 23.7044L228.806 19.9624C231.927 19.8002 234.883 19.5569 238.007 19.3003C238.263 19.2692 238.339 19.2997 238.346 19.3024C238.346 19.3024 238.365 19.3363 238.396 19.4409C238.421 19.5353 238.448 19.6368 238.507 19.7345C238.516 19.7478 238.525 19.7612 238.534 19.7746L240.146 33.3274C240.192 33.7048 240.531 33.9742 240.908 33.9284C244.382 33.5175 247.961 33.0936 251.431 32.6795C251.647 32.682 251.884 32.6678 252.151 32.6354C252.521 32.5904 252.912 32.514 253.321 32.4354C253.727 32.3573 254.125 32.2764 254.506 32.2302C255.228 32.1425 255.682 32.1993 255.932 32.411C256.842 33.814 256.962 37.7045 256.651 39.9277C255.864 39.9836 255.029 40.0633 254.164 40.1683C250.643 40.5959 246.835 41.4015 243.976 42.3195C243.805 42.3727 243.664 42.4909 243.579 42.6494C242.568 44.5459 242.94 47.1629 243.302 49.691C243.422 50.5325 243.546 51.399 243.614 52.2252C243.711 53.1996 243.8 54.4386 243.906 55.8418C244.36 61.9818 245.044 71.2548 247.197 74.537C248.5 76.4342 250.492 76.4271 251.879 76.2587C252.509 76.1822 253.228 76.0371 254.085 75.8138C254.127 75.8015 254.169 75.7892 254.206 75.7702C256.728 74.5753 257.884 73.9256 258.816 71.0237C259.123 70.0182 259.086 68.762 259.056 67.6531C259.03 66.7603 259.007 65.9143 259.159 65.3829C261.19 65.2011 263.361 65.8045 264.45 66.8643C264.87 70.6714 263.944 75.5521 262.222 78.5211C261.193 80.1777 260.045 81.9318 258.418 83.3613C255.347 85.9522 251.678 87.5753 247.815 88.0444Z" fill="#F8E3D1"/>
<path d="M215.226 91.5361C214.418 91.6342 213.512 91.6358 212.552 91.6368C211.61 91.6357 210.636 91.6384 209.761 91.7447C209.366 91.7926 209.024 91.8594 208.713 91.9442C207.661 92.2562 206.373 92.4993 204.647 92.7088C203.328 92.8691 201.927 92.9886 200.577 93.1056C199.266 93.2179 198.072 93.3194 196.959 93.4546L196.77 93.4775C195.7 93.6076 194.701 93.7614 193.73 93.9118L193.63 93.9239C192.78 94.0596 191.966 94.1875 191.208 94.2795C190.76 94.3339 190.331 94.3751 189.93 94.3985C189.724 94.3982 189.47 94.4182 189.211 94.4498C188.698 94.512 188.181 94.6217 187.678 94.7262C187.168 94.8352 186.65 94.9414 186.166 95.0001C185.298 95.1055 184.675 95.0295 184.209 94.7574C183.975 94.6449 183.327 94.095 182.784 90.7257C182.476 88.8231 182.35 86.8661 182.423 86.16C183.752 85.8397 185.112 85.624 186.426 85.4139C187.669 85.216 188.823 85.0289 189.972 84.7701C190.292 84.6988 190.513 84.4118 190.506 84.084C190.464 82.1384 190.239 80.1392 190.022 78.2041C189.82 76.3971 189.608 74.5336 189.548 72.7383C189.101 61.0199 187.432 50.5625 185.816 40.4491C184.961 35.0802 184.15 30.0166 183.516 24.8015C183.494 24.62 183.397 24.4511 183.254 24.3385C183.111 24.2294 182.931 24.179 182.753 24.2006C182.75 24.201 182.746 24.2014 182.743 24.2019C182.341 24.2578 181.913 24.3243 181.47 24.3925C180.722 24.5051 179.971 24.6216 179.231 24.7114C177.908 24.8721 176.035 25.0308 174.999 24.5859C173.526 20.0688 173.247 16.8876 174.153 14.8631C174.637 14.779 179.588 13.9357 185.098 13.2666C195.201 12.0397 198.308 12.4788 199.261 12.8616C200.276 15.4836 200.541 18.7568 200.773 21.6438L200.839 22.4558C200.949 24.7219 201.225 26.6968 201.493 28.6076C201.799 30.7922 202.085 32.8525 202.139 35.2554C202.256 38.6152 203.117 43.7413 203.877 48.2656C204.327 50.9528 204.754 53.4873 204.976 55.3749C205.836 63.456 206.81 72.6215 207.87 81.5996C207.914 81.9627 208.231 82.2276 208.593 82.2053C208.937 82.1852 209.295 82.1598 209.664 82.1331C212.645 81.9228 216.325 81.6638 216.641 83.11C216.65 83.1488 216.661 83.1835 216.676 83.2178C217.39 84.995 218.239 89.4761 217.541 90.4819C217.137 91.0729 216.426 91.4013 215.231 91.5464L215.226 91.5361Z" fill="#F8E3D1"/>
<path d="M85.9218 109.276C81.4361 109.821 76.5922 109.26 71.1115 107.56C66.6854 106.309 63.7343 104.72 62.0688 102.69C59.6445 99.7047 59.3884 95.6105 61.4247 92.2602C62.8051 89.9865 64.8894 88.5739 67.287 88.2827C68.1051 88.1833 68.9398 88.2192 69.7695 88.393C71.9325 88.8745 77.1976 91.9775 76.744 96.4397C76.708 96.975 76.4896 97.5832 76.2757 98.1691C75.9833 98.9704 75.7826 99.5763 75.8433 100.075C75.8545 100.167 75.8831 100.254 75.9286 100.332C77.0482 102.294 80.5952 102.817 83.4232 102.474C84.3837 102.357 85.3027 102.137 86.0779 101.834C89.7666 100.493 92.416 98.3258 93.3258 95.8926C93.9826 94.1403 93.7695 92.2697 92.6993 90.3262C90.9948 87.2929 84.6383 86.4646 78.491 85.665C74.4564 85.1399 70.6417 84.6422 68.3761 83.5555C62.8916 80.844 59.3259 76.6062 58.3446 71.6247C57.3764 66.7211 59.0057 61.5671 62.9293 57.1134C64.8972 54.7432 68.4578 52.855 70.9668 51.64C71.7346 51.3336 72.484 51.0548 73.2298 50.7764C74.0313 50.4804 74.7874 50.1971 75.5622 49.8899L75.6218 49.8754C76.4449 49.7574 77.2511 49.6486 78.0408 49.5527C89.8082 48.1237 97.7313 49.2784 101.59 52.9892C103.711 55.0255 104.599 57.869 104.227 61.4326C104.058 63.1257 102.806 64.8563 100.791 66.1812C99.3398 67.134 97.6924 67.7459 96.024 67.9485C94.7363 68.1048 93.4783 68.0011 92.3856 67.6534C87.5966 66.0603 87.0669 62.2992 87.7708 56.7482C87.7972 56.5499 87.7329 56.3482 87.5956 56.1987C87.4619 56.0488 87.2679 55.9676 87.0665 55.974C86.7718 55.9845 86.5109 55.9764 86.2678 55.9662C85.8981 55.9533 85.5465 55.9418 85.1517 55.9898C84.8173 56.0304 84.4877 56.1101 84.1419 56.2352C83.3794 56.4362 82.6254 56.6181 81.8955 56.7898C77.4793 57.8463 73.9923 58.6779 72.97 62.9165C72.5853 64.354 72.3034 66.31 73.1738 67.3819C75.2062 70.0539 80.3423 69.8709 84.8748 69.7106C87.2072 69.626 89.4072 69.5503 91.154 69.815C102.299 71.5791 107.085 79.0534 107.846 85.4596C107.943 86.2534 108.038 86.9499 108.122 87.5826C108.531 90.5601 108.737 92.0415 107.565 95.0809C106.772 97.1387 104.23 99.8641 102.999 101.018C97.2927 105.923 91.8549 108.552 85.9072 109.274L85.9218 109.276Z" fill="#F8E3D1"/>
<path d="M15.2563 118.703C12.8231 118.999 10.8942 118.958 10.2185 118.596L9.6971 118.316L9.71147 117.722C9.74386 116.504 9.78058 115.322 9.81677 114.166L9.82789 113.752C9.94396 110.166 10.0499 106.822 10.0066 103.439C10.0037 103.237 9.91147 103.042 9.75499 102.913C9.61048 102.794 9.42352 102.74 9.23855 102.763C9.22432 102.765 9.20653 102.767 9.1923 102.769C8.31035 102.937 7.46407 103.072 6.68147 103.167C3.70406 103.529 2.3053 103.247 1.65155 102.947L1.2388 102.759L1.12421 102.321C0.406218 99.6235 0.283015 97.453 0.786132 96.366L0.954879 96.0023L1.33179 95.8663C2.89863 95.3039 4.94071 94.85 7.08217 94.59C7.49481 94.5398 7.91187 94.4964 8.32625 94.4605C8.72101 94.4415 9.04323 94.4493 9.34723 94.4558C9.37968 94.4554 9.41569 94.4547 9.4477 94.4508C9.77497 94.411 10.0532 94.1461 10.0743 93.8148C10.1964 91.9107 10.4969 90.1367 10.79 88.4213C11.1498 86.3041 11.5235 84.1238 11.5693 81.651C11.5727 81.4411 11.48 81.2429 11.3191 81.1071C11.1746 80.9874 10.9876 80.9342 10.7991 80.9571C10.7777 80.9597 10.7564 80.9623 10.7386 80.9644C10.0247 81.1198 9.1962 81.2529 8.28555 81.3635C5.90575 81.6525 3.43465 81.725 1.83285 81.5546L1.3392 81.5026L1.43596 81.4078C1.69769 81.1557 1.71948 80.7412 1.47991 80.4632C1.32448 80.2834 1.09806 80.2026 0.87751 80.2293C0.792136 80.2397 0.708494 80.2643 0.631007 80.3099C-0.122858 78.5338 -0.0587904 76.1816 0.103545 75.0529L0.175848 74.5492L0.632604 74.3276C1.14368 74.0777 1.67754 73.9262 2.31073 73.8493C2.77318 73.7931 3.2199 73.7858 3.65197 73.7767C4.09869 73.7694 4.51653 73.762 4.94695 73.7097C5.37738 73.6575 5.79506 73.5598 6.18135 73.4117C7.59931 72.8422 9.30661 72.2772 11.4145 71.6817C11.6796 71.6061 11.8724 71.3804 11.9075 71.1052C12.2648 68.2551 12.616 65.355 12.9703 62.451C13.0109 61.9837 12.9606 61.3324 12.9055 60.6419C12.8012 59.3396 12.6971 58.0085 13.105 56.9403L13.3139 56.4019L13.6056 56.3665C13.6732 56.3583 13.7359 56.3398 13.7978 56.3143C13.9006 56.2693 14.0056 56.2421 14.1123 56.2291L14.187 56.22C15.3571 56.1647 16.5368 56.1298 17.7055 56.0926L17.7917 56.0893C18.8599 56.0572 19.8917 56.0222 20.9043 55.9787L21.7908 55.936L21.9217 57.2206C21.7423 59.6627 21.5511 62.1278 21.356 64.5899C21.2178 66.3622 21.0765 68.1386 20.9446 69.903C20.927 70.1147 21.0099 70.3214 21.1677 70.4611C21.3139 70.5951 21.5133 70.6612 21.7125 70.637C21.7232 70.6357 21.7338 70.6344 21.7445 70.6331C21.9958 70.5918 22.2439 70.5544 22.4965 70.5237C23.7557 70.3708 25.0457 70.3514 26.2965 70.3368C27.4678 70.321 28.5488 70.3053 29.5235 70.187C30.4057 70.0798 31.0947 69.8986 31.6392 69.6266C31.8979 69.4976 32.0486 69.2228 32.0175 68.9376C31.5902 65.0087 32.3751 55.673 32.9516 54.447L33.1781 53.9644L33.7046 53.9004C34.8255 53.7679 35.9309 53.6553 37.0366 53.5464C38.1633 53.4312 39.2584 53.3235 40.3754 53.1879L41.6489 53.0332L41.4354 54.3054C41.3299 54.9215 41.3845 55.6084 41.4362 56.2704C41.4904 56.9538 41.5437 57.659 41.4688 58.4086C41.4197 58.895 41.3684 59.3636 41.3198 59.8247L41.3028 59.9821C41.0407 62.398 40.8108 64.485 41.0185 67.3497C41.0462 67.7256 41.3693 68.0079 41.7454 67.9839C42.4367 67.9397 43.0644 67.9068 43.6597 67.8742C45.2663 67.7875 46.6506 67.7133 48.4333 67.5004L49.255 67.4006L49.4751 68.2011C49.5331 68.4108 49.6012 68.6446 49.6715 68.8961C50.3251 71.154 50.8219 73.131 50.2633 74.474L50.0872 74.8964L49.6521 75.0287C48.3076 75.4304 46.7965 75.65 45.3357 75.8671C43.3035 76.1645 41.2143 76.4688 39.8246 77.2408C39.6353 77.3469 39.5063 77.5323 39.4784 77.7488C38.9796 81.364 39.1049 85.214 39.2253 88.9345L39.2548 89.8593C39.2673 90.2299 39.57 90.5218 39.9384 90.5241C40.2456 90.5265 40.5821 90.5037 40.9663 90.457C42.0299 90.3279 43.2674 90.0259 44.3577 89.7598C45.448 89.4937 46.577 89.2194 47.5979 89.0954C49.4441 88.8712 50.5717 89.1786 51.2528 90.0893L51.451 90.3542L51.4446 90.6873C51.4336 91.2197 51.4381 91.732 51.4423 92.2409C51.4462 92.8075 51.4511 93.3524 51.4364 93.9141C51.4297 94.0667 51.4292 94.2112 51.4283 94.3522C51.419 95.3142 51.4084 96.3848 50.5352 97.1302C50.1167 97.4881 49.4635 97.6974 48.3501 97.8326C47.5675 97.9277 46.61 97.979 45.5261 98.0311C44.5717 98.0784 43.5025 98.1323 42.6559 98.2352C42.069 98.3064 41.6642 98.3917 41.382 98.5054C41.107 98.6183 40.8263 98.6849 40.4884 98.726C40.3532 98.7424 40.2283 98.7539 40.1136 98.7606C40.1029 98.7619 40.0958 98.7628 40.0851 98.7641C39.8254 98.7956 39.6048 98.9705 39.5196 99.2193C39.0328 100.619 39.0241 103.723 39.0204 106.216C39.0098 110.729 38.9432 113.327 37.676 114.276C37.0006 114.748 35.8923 115.103 34.5761 115.262C33.8291 115.353 33.0414 115.377 32.4144 115.326L32.0465 115.299L31.7935 115.03C31.6983 114.929 31.6044 114.839 31.5148 114.756C31.315 114.568 31.1723 114.433 31.051 114.296L30.8579 114.074L30.8224 113.782C30.5996 111.891 30.6716 109.693 30.742 107.571C30.8257 105.083 30.9113 102.522 30.5301 100.427C30.4659 100.077 30.1475 99.8336 29.7976 99.8653C26.9788 100.106 23.9874 100.412 21.3728 100.729L20.6507 100.817C20.2843 100.862 20.0214 101.193 20.0518 101.562C20.4081 105.59 19.4451 113.491 19.4364 113.568C19.398 113.876 19.4012 114.259 19.4066 114.659C19.4222 115.737 19.4437 117.071 18.4693 117.934L18.3067 118.051L18.2385 118.085C17.6955 118.338 16.2915 118.577 15.2527 118.704L15.2563 118.703ZM21.2158 78.7818C21.0736 78.799 20.9317 78.8199 20.7907 78.8478C20.4803 78.9072 20.2563 79.1728 20.2402 79.4855C20.2042 80.169 20.1637 80.8747 20.1217 81.5986C19.9335 84.8293 19.7221 88.4926 19.9449 92.0165C19.9681 92.3857 20.281 92.6728 20.6513 92.6604L21.4497 92.6357C22.9855 92.59 27.0316 92.4671 29.4113 92.1781C30.0517 92.1004 30.5253 92.0176 30.8674 91.9219C31.1085 91.8564 31.2909 91.6645 31.3517 91.4223C32.1265 88.265 32.1503 82.1391 31.7757 77.7234C31.7445 77.3478 31.4182 77.0696 31.0425 77.0971C30.7882 77.1136 30.5424 77.1398 30.3005 77.1692C29.0092 77.326 27.8525 77.6399 26.6256 77.9695C25.9721 78.1464 25.3288 78.3184 24.6478 78.477C24.3857 78.5485 24.1278 78.5943 23.8432 78.6289C23.3772 78.6855 22.9056 78.6958 22.4882 78.7067C22.0383 78.718 21.6316 78.7277 21.2225 78.7773L21.2158 78.7818Z" fill="#F8E3D1"/>
<path d="M159.098 136.987C158.095 137.108 157.177 136.389 157.055 135.385L154.236 112.204C154.114 111.2 154.832 110.282 155.835 110.16L164.17 109.148C166.102 108.913 167.831 109.036 169.315 109.509C170.821 109.991 172.025 110.752 172.892 111.766C173.763 112.787 174.28 113.949 174.434 115.213C174.588 116.477 174.379 117.611 173.838 118.742C173.613 119.207 173.331 119.653 172.999 120.062C172.864 120.23 172.811 120.449 172.865 120.659C172.916 120.87 173.064 121.043 173.262 121.128C174.161 121.514 174.949 122.028 175.606 122.656C176.771 123.776 177.46 125.133 177.649 126.685C177.823 128.12 177.577 129.508 176.913 130.817C176.255 132.114 175.174 133.232 173.703 134.136C172.256 135.027 170.428 135.611 168.279 135.872L159.098 136.987ZM163.685 125.014C163.308 125.06 163.043 125.403 163.088 125.777L163.583 129.842C163.628 130.22 163.971 130.485 164.345 130.44L167.087 130.107C168.261 129.964 169.129 129.588 169.659 128.989C170.18 128.405 170.384 127.737 170.287 126.944C170.191 126.15 169.834 125.561 169.193 125.129C168.533 124.686 167.604 124.531 166.423 124.675L163.68 125.008L163.685 125.014ZM162.428 114.677C162.05 114.723 161.785 115.066 161.831 115.439L162.29 119.213C162.336 119.59 162.678 119.855 163.052 119.81L164.809 119.597C165.819 119.474 166.541 119.141 167.006 118.575C167.466 118.024 167.646 117.399 167.558 116.673C167.47 115.947 167.14 115.347 166.562 114.923C165.971 114.489 165.191 114.334 164.18 114.457L162.423 114.67L162.428 114.677Z" fill="#F8E3D1"/>
<path d="M195.428 133.171C193.17 133.445 191.082 133.233 189.225 132.537C187.346 131.837 185.781 130.658 184.576 129.034C183.38 127.424 182.626 125.406 182.338 123.042L180.631 109.006C180.509 108.002 181.228 107.084 182.231 106.962L185.685 106.543C186.688 106.421 187.606 107.14 187.728 108.144L189.435 122.18C189.622 123.722 190.157 124.881 191.064 125.721C191.943 126.536 193.114 126.841 194.64 126.656C196.166 126.471 197.19 125.898 197.848 124.897C198.521 123.876 198.769 122.589 198.584 121.069L196.877 107.033C196.755 106.029 197.474 105.111 198.477 104.989L201.931 104.57C202.934 104.448 203.852 105.167 203.974 106.171L205.681 120.207C205.968 122.567 205.726 124.703 204.966 126.554C204.196 128.418 202.966 129.936 201.306 131.07C199.666 132.19 197.691 132.896 195.436 133.17L195.428 133.171Z" fill="#F8E3D1"/>
<path d="M228.077 128.61C227.444 128.687 226.805 128.421 226.412 127.92L221.544 121.694C221.394 121.503 221.158 121.405 220.92 121.434L219.828 121.567C219.451 121.613 219.186 121.955 219.231 122.329L219.891 127.754C220.013 128.758 219.294 129.676 218.291 129.798L214.837 130.218C213.834 130.339 212.916 129.62 212.794 128.616L209.975 105.435C209.853 104.431 210.571 103.513 211.574 103.391L219.251 102.459C221.453 102.191 223.466 102.362 225.236 102.964C227.025 103.574 228.487 104.552 229.572 105.876C230.661 107.2 231.322 108.781 231.54 110.575C231.759 112.369 231.497 114.016 230.766 115.55C230.227 116.692 229.44 117.701 228.435 118.553C228.15 118.793 228.109 119.221 228.346 119.51L232.97 125.176C233.398 125.702 233.504 126.394 233.252 127.02C233 127.651 232.445 128.076 231.773 128.157L228.077 128.606L228.077 128.61ZM218.238 108.492C217.861 108.538 217.595 108.88 217.641 109.254L218.357 115.146C218.403 115.523 218.746 115.788 219.12 115.743L220.254 115.605C221.827 115.414 222.947 114.917 223.572 114.126C224.208 113.326 224.457 112.44 224.332 111.411C224.207 110.382 223.757 109.617 222.948 108.993C222.147 108.375 220.944 108.159 219.372 108.35L218.237 108.488L218.238 108.492Z" fill="#F8E3D1"/>
<path d="M252.038 126.296C249.459 126.609 246.988 126.292 244.685 125.347C242.383 124.402 240.445 122.921 238.929 120.938C237.414 118.958 236.482 116.604 236.158 113.945C235.835 111.286 236.181 108.816 237.177 106.528C238.173 104.243 239.71 102.337 241.747 100.865C243.778 99.3974 246.162 98.4902 248.837 98.1653C250.655 97.9446 252.446 98.0378 254.167 98.4465C255.508 98.764 256.774 99.2894 257.933 100.001C258.757 100.512 259.039 101.583 258.576 102.441L257.221 104.946C256.941 105.464 256.42 105.817 255.837 105.887C255.481 105.931 255.12 105.87 254.794 105.707C254.114 105.371 253.399 105.103 252.668 104.914C251.614 104.641 250.558 104.567 249.523 104.693C248.16 104.858 246.966 105.339 245.971 106.125C244.973 106.91 244.234 107.921 243.77 109.13C243.305 110.346 243.157 111.686 243.33 113.11C243.504 114.534 243.993 115.887 244.763 116.993C245.528 118.088 246.505 118.909 247.663 119.437C248.817 119.961 250.07 120.145 251.383 119.986C253.001 119.789 254.509 119.097 255.858 117.932C256.031 117.781 256.119 117.557 256.092 117.329L255.875 115.546C255.829 115.169 255.486 114.903 255.113 114.948L251.079 115.438C250.075 115.56 249.158 114.841 249.036 113.837L248.829 112.135C248.707 111.131 249.422 110.214 250.428 110.092L259.869 108.945C260.872 108.823 261.79 109.543 261.912 110.546L262.874 118.453C262.926 118.883 262.827 119.318 262.596 119.675C261.42 121.49 259.955 122.976 258.238 124.084C256.401 125.271 254.318 126.016 252.041 126.292L252.038 126.296Z" fill="#F8E3D1"/>
<path d="M271.375 123.351C270.372 123.473 269.454 122.754 269.332 121.75L266.513 98.5688C266.391 97.5649 267.109 96.6468 268.112 96.525L282.989 94.7184C283.992 94.5966 284.91 95.316 285.032 96.3198L285.345 98.8971C285.467 99.901 284.749 100.819 283.745 100.941L274.824 102.024C274.447 102.07 274.182 102.413 274.227 102.787L274.642 106.197C274.688 106.574 275.03 106.84 275.404 106.794L282.867 105.888C283.87 105.766 284.788 106.486 284.91 107.49L285.179 109.704C285.301 110.708 284.583 111.626 283.58 111.748L276.117 112.654C275.74 112.7 275.474 113.042 275.52 113.416L275.81 115.801C275.856 116.179 276.199 116.444 276.572 116.399L285.86 115.271C286.863 115.149 287.781 115.868 287.903 116.872L288.217 119.453C288.339 120.457 287.624 121.375 286.617 121.497L271.375 123.348L271.375 123.351Z" fill="#F8E3D1"/>
<path d="M309.112 118.769C308.478 118.846 307.84 118.58 307.447 118.079L302.578 111.854C302.428 111.662 302.193 111.565 301.954 111.593L300.862 111.726C300.485 111.772 300.22 112.115 300.265 112.489L300.925 117.914C301.047 118.918 300.329 119.836 299.326 119.957L295.872 120.377C294.868 120.499 293.951 119.779 293.829 118.775L291.009 95.5942C290.887 94.5903 291.602 93.6726 292.609 93.5504L300.285 92.6181C302.487 92.3507 304.501 92.5217 306.27 93.1231C308.063 93.7327 309.521 94.7116 310.61 96.0351C311.695 97.3592 312.36 98.94 312.578 100.734C312.796 102.528 312.535 104.175 311.808 105.708C311.268 106.85 310.481 107.86 309.477 108.711C309.188 108.952 309.15 109.379 309.387 109.669L314.011 115.335C314.44 115.861 314.545 116.552 314.293 117.179C314.041 117.809 313.487 118.234 312.814 118.316L309.122 118.764L309.112 118.769ZM299.268 98.6515C298.891 98.6973 298.626 99.0401 298.672 99.4139L299.388 105.305C299.434 105.683 299.777 105.948 300.15 105.903L301.289 105.765C302.861 105.574 303.981 105.076 304.607 104.285C305.242 103.485 305.488 102.599 305.363 101.571C305.238 100.542 304.787 99.7766 303.982 99.1519C303.182 98.5339 301.979 98.3187 300.406 98.5097L299.268 98.6479L299.268 98.6515Z" fill="#F8E3D1"/>
</svg>
